<?xml version="1.0" encoding="UTF-8"?>
<!DOCTYPE svg PUBLIC "-//W3C//DTD SVG 1.1//EN" "http://www.w3.org/Graphics/SVG/1.1/DTD/svg11.dtd">
<!-- Creator: CorelDRAW -->
<svg xmlns="http://www.w3.org/2000/svg" xml:space="preserve" width="2048px" height="2048px" style="shape-rendering:geometricPrecision; text-rendering:geometricPrecision; image-rendering:optimizeQuality; fill-rule:evenodd; clip-rule:evenodd"
viewBox="0 0 2048 2048"
 xmlns:xlink="http://www.w3.org/1999/xlink">
 <defs>
  <style type="text/css">
   <![CDATA[
    .fil2 {fill:none}
    .fil3 {fill:#212121}
    .fil6 {fill:#43A047}
    .fil1 {fill:#E53935}
    .fil0 {fill:#E57373}
    .fil4 {fill:#E6BFA4}
    .fil5 {fill:#F7C5A9}
    .fil7 {fill:#FCD2B5}
   ]]>
  </style>
   <clipPath id="id0">
    <path d="M1024 0c565.539,0 1024,458.461 1024,1024 0,565.539 -458.461,1024 -1024,1024 -565.539,0 -1024,-458.461 -1024,-1024 0,-565.539 458.461,-1024 1024,-1024z"/>
   </clipPath>
 </defs>
 <g id="Layer_x0020_1">
  <metadata id="CorelCorpID_0Corel-Layer"/>
  <path class="fil0" d="M1024 0c565.539,0 1024,458.461 1024,1024 0,565.539 -458.461,1024 -1024,1024 -565.539,0 -1024,-458.461 -1024,-1024 0,-565.539 458.461,-1024 1024,-1024z"/>
  <g style="clip-path:url(#id0)">
   <g id="_478210672">
    <g>
     <polygon id="_3871874081" class="fil1" points="1147.33,693.083 2283.22,1828.97 2283.79,1830.97 2284.22,1833.01 2284.53,1835.07 2284.72,1837.15 2284.78,1839.24 2284.72,1841.34 2284.55,1843.45 2284.27,1845.57 2283.88,1847.68 2283.39,1849.79 2282.8,1851.88 2282.1,1853.96 2281.32,1856.03 2280.45,1858.07 2279.49,1860.09 2278.44,1862.07 2277.32,1864.02 2276.12,1865.94 2274.85,1867.8 2273.52,1869.63 2272.11,1871.4 2270.65,1873.12 2269.12,1874.77 2267.55,1876.37 2265.92,1877.89 2264.24,1879.35 2262.52,1880.73 2260.77,1882.02 2258.97,1883.24 2257.14,1884.37 2255.28,1885.4 2253.4,1886.34 1117.52,750.454 1119.4,749.516 1121.26,748.483 1123.09,747.356 1124.88,746.142 1126.64,744.843 1128.36,743.464 1130.04,742.01 1131.67,740.484 1133.24,738.891 1134.77,737.234 1136.23,735.517 1137.64,733.746 1138.97,731.923 1140.24,730.054 1141.44,728.141 1142.56,726.191 1143.61,724.205 1144.57,722.189 1145.44,720.147 1146.22,718.082 1146.91,716 1147.51,713.904 1148,711.798 1148.39,709.686 1148.67,707.572 1148.84,705.461 1148.9,703.358 1148.84,701.265 1148.65,699.186 1148.34,697.127 1147.9,695.091 "/>
     <polygon id="_387210328" class="fil1" points="985.605,826.703 2121.49,1962.58 2119.13,1960.98 2116.77,1959.26 2114.4,1957.43 2112.04,1955.51 2109.68,1953.48 2107.33,1951.38 2105,1949.19 2102.68,1946.92 2100.39,1944.59 964.504,808.706 966.802,811.038 969.119,813.303 971.453,815.493 973.801,817.602 976.157,819.624 978.519,821.552 980.884,823.379 983.247,825.097 "/>
     <polygon id="_387202912" class="fil1" points="1472.41,1329.75 2608.29,2465.63 2608.29,2465.65 2608.29,2465.68 2608.3,2465.7 2608.3,2465.72 2608.3,2465.74 2608.31,2465.76 2608.31,2465.79 2608.31,2465.81 1472.43,1329.93 1472.43,1329.9 1472.43,1329.88 1472.42,1329.86 1472.42,1329.84 1472.42,1329.82 1472.41,1329.79 1472.41,1329.77 "/>
     <polygon id="_387192376" class="fil1" points="1472.43,1329.93 2608.31,2465.81 2606.11,2467.96 2603.86,2470.08 2601.56,2472.2 2599.22,2474.3 2596.84,2476.4 2594.44,2478.5 2592.02,2480.6 2589.59,2482.71 2587.15,2484.83 2584.72,2486.97 2582.3,2489.13 2579.89,2491.32 2577.51,2493.53 2575.16,2495.78 2572.85,2498.07 2570.58,2500.39 1434.7,1364.51 1436.97,1362.18 1439.28,1359.9 1441.63,1357.65 1444.01,1355.43 1446.42,1353.25 1448.84,1351.09 1451.27,1348.95 1453.71,1346.83 1456.14,1344.72 1458.56,1342.62 1460.96,1340.52 1463.33,1338.42 1465.68,1336.31 1467.98,1334.2 1470.23,1332.07 "/>
     <polygon id="_387196480" class="fil1" points="1434.7,1364.51 2570.58,2500.39 2567.95,2503.02 2565.35,2505.58 2562.77,2508.09 2560.21,2510.55 2557.67,2512.96 2555.15,2515.31 2552.63,2517.61 2550.11,2519.87 2547.59,2522.07 2545.07,2524.23 2542.55,2526.34 2540.01,2528.41 2537.45,2530.43 2534.87,2532.4 2532.27,2534.33 2529.64,2536.22 2526.97,2538.07 2524.27,2539.88 2521.53,2541.65 2518.74,2543.38 2515.9,2545.07 2513.01,2546.73 2510.06,2548.35 2507.04,2549.93 2503.96,2551.48 2500.82,2553 2497.59,2554.48 2494.29,2555.94 2490.91,2557.36 2487.44,2558.75 2483.87,2560.11 2480.22,2561.45 1344.34,1425.57 1347.99,1424.23 1351.56,1422.87 1355.03,1421.48 1358.41,1420.05 1361.71,1418.6 1364.93,1417.11 1368.08,1415.6 1371.16,1414.05 1374.17,1412.46 1377.13,1410.84 1380.02,1409.19 1382.86,1407.5 1385.64,1405.77 1388.39,1404 1391.09,1402.19 1393.75,1400.34 1396.39,1398.45 1398.99,1396.52 1401.57,1394.54 1404.12,1392.52 1406.66,1390.46 1409.19,1388.35 1411.71,1386.19 1414.23,1383.98 1416.74,1381.73 1419.26,1379.43 1421.79,1377.07 1424.33,1374.67 1426.89,1372.21 1429.47,1369.7 1432.07,1367.13 "/>
     <polygon id="_387199336" class="fil1" points="1344.34,1425.57 2480.22,2561.45 2476.9,2562.63 2473.57,2563.78 2470.22,2564.91 2466.85,2566.01 2463.48,2567.09 2460.09,2568.15 2456.69,2569.19 2453.28,2570.2 2449.86,2571.2 2446.42,2572.18 2442.98,2573.14 2439.54,2574.08 2436.08,2575.01 2432.62,2575.92 2429.15,2576.81 2425.68,2577.7 2422.2,2578.57 2418.72,2579.43 2415.24,2580.28 2411.75,2581.12 2408.27,2581.95 2404.78,2582.77 2401.29,2583.59 2397.81,2584.4 2394.33,2585.2 2390.85,2586.01 2387.37,2586.8 2383.9,2587.6 2380.43,2588.39 2376.98,2589.18 2373.52,2589.98 2370.08,2590.77 1234.19,1454.89 1237.64,1454.09 1241.09,1453.3 1244.55,1452.51 1248.02,1451.72 1251.49,1450.92 1254.97,1450.12 1258.45,1449.32 1261.93,1448.52 1265.41,1447.71 1268.9,1446.89 1272.38,1446.07 1275.87,1445.24 1279.36,1444.4 1282.84,1443.55 1286.32,1442.69 1289.8,1441.82 1293.27,1440.93 1296.74,1440.04 1300.2,1439.12 1303.65,1438.2 1307.1,1437.25 1310.54,1436.29 1313.98,1435.32 1317.4,1434.32 1320.81,1433.31 1324.21,1432.27 1327.6,1431.21 1330.97,1430.13 1334.34,1429.03 1337.68,1427.9 1341.02,1426.75 "/>
     <polygon id="_387183880" class="fil1" points="1026.89,1467.87 2162.77,2603.75 2162.58,2604.59 2162.39,2605.43 2162.22,2606.25 2162.07,2607.07 2161.93,2607.87 2161.81,2608.67 2161.71,2609.45 2161.63,2610.22 1025.75,1474.34 1025.83,1473.57 1025.93,1472.78 1026.05,1471.99 1026.19,1471.19 1026.34,1470.37 1026.51,1469.55 1026.7,1468.71 "/>
     <polygon id="_387196288" class="fil1" points="1025.75,1474.34 2161.63,2610.22 2161.63,2611.51 2161.64,2612.99 2161.66,2614.65 2161.67,2616.47 2161.68,2618.44 2161.7,2620.54 2161.7,2622.77 2161.7,2625.1 2161.68,2627.52 2161.66,2630.03 2161.61,2632.6 2161.55,2635.23 2161.48,2637.89 2161.38,2640.58 2161.25,2643.28 2161.1,2645.97 2160.92,2648.65 2160.71,2651.3 2160.46,2653.91 2160.18,2656.46 2159.86,2658.93 2159.5,2661.32 2159.1,2663.61 2158.65,2665.79 2158.15,2667.84 2157.61,2669.75 2157.01,2671.51 2156.36,2673.1 2155.65,2674.51 2154.88,2675.72 2154.05,2676.72 2153.16,2677.5 1017.28,1541.61 1018.17,1540.84 1019,1539.84 1019.77,1538.62 1020.48,1537.22 1021.13,1535.63 1021.73,1533.87 1022.27,1531.96 1022.77,1529.91 1023.22,1527.73 1023.62,1525.44 1023.98,1523.05 1024.3,1520.57 1024.58,1518.03 1024.82,1515.42 1025.04,1512.77 1025.22,1510.09 1025.37,1507.39 1025.49,1504.69 1025.59,1502.01 1025.67,1499.34 1025.73,1496.72 1025.77,1494.15 1025.8,1491.64 1025.81,1489.22 1025.82,1486.88 1025.81,1484.66 1025.8,1482.55 1025.79,1480.58 1025.78,1478.76 1025.76,1477.11 1025.75,1475.63 "/>
     <polygon id="_387194728" class="fil1" points="1234.19,1454.89 2370.08,2590.77 2368.9,2591.05 2367.43,2591.44 2365.69,2591.95 2363.69,2592.56 2361.46,2593.28 2359,2594.09 2356.33,2594.99 2353.47,2595.98 2350.43,2597.05 2347.23,2598.19 2343.88,2599.41 2340.41,2600.69 2336.82,2602.02 2333.13,2603.41 2329.36,2604.85 2325.53,2606.33 2321.64,2607.84 2317.72,2609.39 2313.78,2610.96 2309.84,2612.56 2305.9,2614.17 2302,2615.78 2298.14,2617.41 2294.35,2619.03 2290.62,2620.64 2286.99,2622.25 2283.47,2623.83 2280.07,2625.39 2276.81,2626.93 2273.71,2628.43 2270.77,2629.89 2268.03,2631.31 2263.19,2633.94 2258.67,2636.57 2254.47,2639.18 2250.55,2641.78 2246.9,2644.35 2243.49,2646.88 2240.31,2649.38 2237.32,2651.83 2234.53,2654.22 2231.89,2656.55 2229.39,2658.81 2227.01,2660.99 2224.73,2663.09 2222.53,2665.09 2220.38,2667 2218.28,2668.81 2216.18,2670.5 2214.08,2672.07 2211.96,2673.52 2209.78,2674.83 2207.54,2676 2205.21,2677.02 2202.77,2677.88 2200.19,2678.59 2197.47,2679.12 2194.57,2679.48 2191.48,2679.65 2188.18,2679.63 2184.64,2679.41 2180.84,2678.99 2176.77,2678.35 2172.39,2677.5 1036.51,1541.61 1040.88,1542.47 1044.96,1543.11 1048.75,1543.53 1052.29,1543.75 1055.6,1543.77 1058.69,1543.59 1061.59,1543.24 1064.31,1542.71 1066.89,1542 1069.33,1541.14 1071.66,1540.11 1073.9,1538.95 1076.07,1537.63 1078.2,1536.19 1080.3,1534.62 1082.39,1532.93 1084.5,1531.12 1086.65,1529.21 1088.85,1527.21 1091.13,1525.11 1093.51,1522.92 1096.01,1520.66 1098.64,1518.34 1101.44,1515.94 1104.42,1513.5 1107.61,1511 1111.02,1508.47 1114.67,1505.9 1118.59,1503.3 1122.79,1500.69 1127.31,1498.06 1132.15,1495.42 1134.89,1494.01 1137.83,1492.55 1140.93,1491.05 1144.19,1489.51 1147.59,1487.95 1151.11,1486.37 1154.74,1484.76 1158.47,1483.15 1162.26,1481.53 1166.12,1479.9 1170.02,1478.28 1173.95,1476.68 1177.9,1475.08 1181.84,1473.51 1185.76,1471.96 1189.65,1470.45 1193.48,1468.97 1197.25,1467.53 1200.94,1466.14 1204.53,1464.8 1208,1463.53 1211.35,1462.31 1214.55,1461.17 1217.59,1460.1 1220.45,1459.11 1223.12,1458.21 1225.58,1457.39 1227.81,1456.68 1229.81,1456.06 1231.55,1455.56 1233.02,1455.16 "/>
     <polygon id="_387190768" class="fil1" points="1036.51,1541.61 2172.39,2677.5 2171.5,2676.72 1035.62,1540.84 "/>
     <polygon id="_387210544" class="fil1" points="1017.28,1541.61 2153.16,2677.5 2148.78,2678.35 2144.71,2678.99 2140.91,2679.41 2137.37,2679.63 2134.07,2679.65 2130.98,2679.48 2128.08,2679.12 2125.36,2678.59 2122.78,2677.88 2120.34,2677.02 2118.01,2676 2115.77,2674.83 2113.59,2673.52 2111.47,2672.07 2109.37,2670.5 2107.27,2668.81 2105.17,2667 2103.02,2665.09 967.138,1529.21 969.284,1531.12 971.392,1532.93 973.487,1534.62 975.587,1536.19 977.713,1537.63 979.887,1538.95 982.129,1540.11 984.46,1541.14 986.902,1542 989.475,1542.71 992.199,1543.24 995.096,1543.59 998.187,1543.77 1001.49,1543.75 1005.03,1543.53 1008.83,1543.11 1012.9,1542.47 "/>
     <polygon id="_387209536" class="fil1" points="957.781,1520.66 2093.66,2656.55 2091.02,2654.22 2088.22,2651.83 2085.24,2649.38 2082.06,2646.88 2078.65,2644.35 2075,2641.78 2071.08,2639.18 2066.88,2636.57 2062.36,2633.94 2057.52,2631.31 2054.78,2629.89 2051.84,2628.43 2048.74,2626.93 2045.48,2625.39 2042.08,2623.83 2038.56,2622.25 2034.93,2620.64 2031.2,2619.03 2027.41,2617.41 2023.55,2615.78 2019.65,2614.17 2015.71,2612.56 2011.77,2610.96 2007.83,2609.39 2003.91,2607.84 2000.02,2606.33 1996.19,2604.85 1992.42,2603.41 1988.73,2602.02 1985.14,2600.69 1981.67,2599.41 1978.32,2598.19 1975.12,2597.05 1972.08,2595.98 1969.22,2594.99 1966.55,2594.09 1964.09,2593.28 1961.86,2592.56 1959.86,2591.95 1958.12,2591.44 1956.65,2591.05 1955.47,2590.77 819.594,1454.89 820.772,1455.16 822.239,1455.56 823.978,1456.06 825.974,1456.68 828.209,1457.39 830.669,1458.21 833.338,1459.11 836.2,1460.1 839.239,1461.17 842.438,1462.31 845.785,1463.53 849.259,1464.8 852.849,1466.14 856.536,1467.53 860.306,1468.97 864.142,1470.45 868.028,1471.96 871.949,1473.51 875.89,1475.08 879.833,1476.68 883.764,1478.28 887.666,1479.9 891.525,1481.53 895.322,1483.15 899.044,1484.76 902.675,1486.37 906.197,1487.95 909.596,1489.51 912.856,1491.05 915.961,1492.55 918.895,1494.01 921.642,1495.42 926.482,1498.06 930.994,1500.69 935.199,1503.3 939.118,1505.9 942.771,1508.47 946.178,1511 949.363,1513.5 952.344,1515.94 955.143,1518.34 "/>
     <polygon id="_387186256" class="fil1" points="590.859,1237.62 1726.74,2373.5 1721.43,2374.04 1715.89,2374.37 1710.16,2374.51 1704.26,2374.46 1698.23,2374.24 1692.1,2373.86 1685.91,2373.33 1679.69,2372.66 1673.47,2371.86 1667.28,2370.94 1661.17,2369.92 1655.15,2368.8 1649.28,2367.6 1643.57,2366.33 1638.06,2364.99 1632.79,2363.6 1627.79,2362.18 1623.09,2360.72 1618.73,2359.25 1614.74,2357.77 1611.14,2356.3 1607.99,2354.84 1605.3,2353.4 1603.11,2352.01 1601.46,2350.67 465.583,1214.78 467.233,1216.13 469.418,1217.52 472.106,1218.95 475.262,1220.41 478.855,1221.89 482.848,1223.37 487.212,1224.84 491.911,1226.29 496.911,1227.72 502.181,1229.11 507.688,1230.45 513.395,1231.72 519.272,1232.92 525.285,1234.04 531.401,1235.06 537.585,1235.98 543.805,1236.78 550.028,1237.45 556.219,1237.98 562.348,1238.36 568.378,1238.58 574.277,1238.63 580.013,1238.49 585.551,1238.16 "/>
     <polygon id="_387212680" class="fil1" points="709.452,1425.57 1845.33,2561.45 1841.68,2560.11 1838.11,2558.75 1834.64,2557.36 1831.26,2555.94 1827.96,2554.48 1824.73,2553 1821.58,2551.48 1818.51,2549.93 1815.49,2548.35 1812.54,2546.73 1809.65,2545.07 1806.81,2543.38 1804.02,2541.65 1801.28,2539.88 1798.58,2538.07 1795.91,2536.22 1793.28,2534.33 1790.68,2532.4 1788.1,2530.43 1785.54,2528.41 1783,2526.34 1780.48,2524.23 1777.96,2522.07 642.075,1386.19 644.595,1388.35 647.123,1390.46 649.663,1392.52 652.221,1394.54 654.799,1396.52 657.402,1398.45 660.034,1400.34 662.698,1402.19 665.401,1404 668.143,1405.77 670.932,1407.5 673.771,1409.19 676.662,1410.84 679.613,1412.46 682.625,1414.05 685.704,1415.6 688.852,1417.11 692.076,1418.6 695.377,1420.05 698.761,1421.48 702.232,1422.87 705.794,1424.23 "/>
     <polygon id="_387189448" class="fil1" points="600.518,1347.21 1736.4,2483.09 1734.02,2481.03 1731.65,2478.97 595.771,1343.09 598.139,1345.14 "/>
     <polygon id="_387202216" class="fil1" points="582.139,1330.7 1718.02,2466.58 1715.95,2464.9 580.067,1329.02 "/>
     <polygon id="_387184384" class="fil1" points="819.594,1454.89 1955.47,2590.77 1952.03,2589.98 1948.57,2589.18 1945.12,2588.39 1941.65,2587.6 1938.18,2586.8 1934.7,2586.01 1931.22,2585.2 1927.74,2584.4 1924.26,2583.59 1920.77,2582.77 1917.28,2581.95 1913.8,2581.12 1910.31,2580.28 1906.83,2579.43 1903.35,2578.57 1899.87,2577.7 1896.4,2576.81 1892.93,2575.92 1889.47,2575.01 1886.01,2574.08 1882.57,2573.14 1879.13,2572.18 1875.69,2571.2 1872.27,2570.2 1868.86,2569.19 1865.46,2568.15 1862.07,2567.09 1858.7,2566.01 1855.33,2564.91 1851.98,2563.78 1848.65,2562.63 1845.33,2561.45 709.452,1425.57 712.77,1426.75 716.103,1427.9 719.451,1429.03 722.814,1430.13 726.19,1431.21 729.578,1432.27 732.979,1433.31 736.391,1434.32 739.812,1435.32 743.245,1436.29 746.685,1437.25 750.133,1438.2 753.589,1439.12 757.051,1440.04 760.519,1440.93 763.992,1441.82 767.469,1442.69 770.949,1443.55 774.432,1444.4 777.917,1445.24 781.403,1446.07 784.889,1446.89 788.375,1447.71 791.859,1448.52 795.341,1449.32 798.82,1450.12 802.296,1450.92 805.768,1451.72 809.234,1452.51 812.694,1453.3 816.147,1454.09 "/>
     <polygon id="_387201760" class="fil1" points="925.522,751.759 2061.4,1887.64 2059.39,1886.83 2057.39,1885.9 2055.43,1884.86 2053.49,1883.72 2051.59,1882.48 2049.73,1881.15 2047.91,1879.72 2046.14,1878.21 2044.42,1876.62 2042.75,1874.96 906.874,739.077 908.538,740.742 910.257,742.33 912.029,743.84 913.848,745.264 915.711,746.599 917.611,747.839 919.547,748.98 921.513,750.017 923.506,750.945 "/>
     <polygon id="_387213592" class="fil1" points="1132.35,765.375 2268.24,1901.26 2271.84,1905.12 2275.39,1909.04 2278.87,1913.01 2282.28,1917.05 2285.62,1921.14 2288.87,1925.29 2292.03,1929.5 2295.1,1933.78 2298.05,1938.12 2300.9,1942.53 2303.63,1947 2306.23,1951.54 2308.7,1956.15 2311.02,1960.83 2313.21,1965.59 2315.24,1970.41 2317.1,1975.31 2318.81,1980.29 2320.33,1985.34 2321.68,1990.47 2322.84,1995.68 2323.8,2000.96 2324.56,2006.34 2325.11,2011.79 2325.45,2017.33 2325.56,2022.95 2325.44,2028.66 2325.09,2034.46 1189.21,898.573 1189.56,892.776 1189.68,887.066 1189.56,881.443 1189.23,875.906 1188.68,870.453 1187.92,865.083 1186.96,859.794 1185.8,854.585 1184.45,849.455 1182.93,844.404 1181.22,839.429 1179.36,834.53 1177.33,829.705 1175.14,824.952 1172.82,820.271 1170.35,815.66 1167.74,811.119 1165.02,806.646 1162.17,802.24 1159.21,797.899 1156.15,793.621 1152.99,789.407 1149.74,785.255 1146.4,781.163 1142.99,777.131 1139.5,773.155 1135.96,769.237 "/>
     <polygon id="_387204328" class="fil1" points="1121.28,546.768 2257.16,1682.65 2261.82,1688.24 2266.23,1694.09 2270.39,1700.2 2274.26,1706.54 2277.82,1713.11 2281.08,1719.89 2283.99,1726.86 2286.55,1734 2288.74,1741.32 2290.53,1748.78 2291.92,1756.38 2292.88,1764.1 2293.4,1771.92 2293.45,1779.84 2293.02,1787.83 2292.1,1795.88 2290.66,1803.99 2288.68,1812.12 2286.15,1820.27 2283.05,1828.42 1147.17,692.542 1150.27,684.388 1152.8,676.236 1154.78,668.103 1156.22,660.002 1157.14,651.948 1157.57,643.955 1157.52,636.039 1157,628.215 1156.04,620.496 1154.65,612.898 1152.85,605.435 1150.67,598.121 1148.11,590.973 1145.19,584.004 1141.94,577.228 1138.37,570.659 1134.51,564.316 1130.35,558.209 1125.94,552.355 "/>
     <polygon id="_387210904" class="fil1" points="1147.17,692.542 2283.05,1828.42 2283.07,1828.49 2283.09,1828.56 2283.11,1828.63 2283.13,1828.69 2283.15,1828.76 2283.17,1828.83 2283.2,1828.9 2283.22,1828.97 1147.33,693.083 1147.31,693.015 1147.29,692.947 1147.27,692.879 1147.25,692.812 1147.23,692.744 1147.21,692.677 1147.19,692.61 "/>
     <polygon id="_387215584" class="fil1" points="1189.21,898.573 2325.09,2034.46 2327,2037.14 2328.85,2039.93 2330.65,2042.82 2332.4,2045.8 2334.11,2048.87 2335.77,2052.02 2337.39,2055.24 2338.98,2058.52 2340.53,2061.87 2342.05,2065.26 2343.54,2068.71 2345,2072.19 2346.44,2075.71 2347.86,2079.25 2349.26,2082.82 2350.65,2086.39 2352.02,2089.98 2353.39,2093.56 2354.75,2097.14 2356.1,2100.71 2357.46,2104.26 2358.81,2107.78 2360.18,2111.27 2361.55,2114.72 2362.93,2118.13 2364.32,2121.48 2365.73,2124.77 2367.16,2128 2368.61,2131.16 2370.09,2134.24 2371.6,2137.24 2373.13,2140.14 1237.25,1004.26 1235.71,1001.36 1234.21,998.361 1232.73,995.28 1231.28,992.122 1229.85,988.892 1228.44,985.596 1227.05,982.243 1225.67,978.838 1224.3,975.387 1222.93,971.897 1221.58,968.376 1220.22,964.828 1218.87,961.261 1217.51,957.682 1216.14,954.096 1214.77,950.512 1213.38,946.934 1211.98,943.37 1210.56,939.826 1209.12,936.309 1207.66,932.825 1206.17,929.381 1204.65,925.984 1203.1,922.639 1201.51,919.353 1199.89,916.135 1198.23,912.987 1196.52,909.92 1194.77,906.938 1192.97,904.048 1191.11,901.259 "/>
     <polygon id="_387215368" class="fil1" points="1237.25,1004.26 2373.13,2140.14 2375.26,2144.08 2377.29,2147.97 2379.22,2151.81 2381.06,2155.6 2382.84,2159.33 2384.55,2163.01 2386.2,2166.65 2387.82,2170.22 2389.41,2173.75 2390.98,2177.22 2392.54,2180.63 2394.1,2183.99 2395.67,2187.3 2397.27,2190.54 2398.91,2193.73 2400.59,2196.87 2402.33,2199.94 2404.13,2202.96 2406.02,2205.91 2407.99,2208.81 2410.06,2211.65 2412.25,2214.42 2414.56,2217.14 2417,2219.79 1281.12,1083.91 1278.68,1081.25 1276.37,1078.54 1274.18,1075.76 1272.11,1072.93 1270.14,1070.03 1268.25,1067.07 1266.45,1064.06 1264.71,1060.98 1263.03,1057.85 1261.39,1054.66 1259.79,1051.41 1258.22,1048.11 1256.65,1044.75 1255.1,1041.34 1253.53,1037.86 1251.94,1034.34 1250.32,1030.76 1248.67,1027.13 1246.96,1023.45 1245.18,1019.71 1243.34,1015.93 1241.41,1012.09 1239.38,1008.2 "/>
     <polygon id="_387188992" class="fil1" points="1582.87,1210.01 2718.75,2345.89 2719.63,2346.88 2719.88,2347.96 2719.54,2349.11 2718.63,2350.34 2717.18,2351.62 2715.23,2352.95 2712.8,2354.32 2709.92,2355.72 2706.63,2357.13 2702.95,2358.56 2698.91,2359.98 2694.55,2361.39 2689.88,2362.79 2684.95,2364.15 2679.79,2365.47 2674.41,2366.74 2668.85,2367.95 2663.15,2369.09 2657.33,2370.14 2651.42,2371.11 2645.45,2371.98 2639.45,2372.73 2633.45,2373.37 2627.49,2373.87 2621.58,2374.24 2615.76,2374.46 2610.07,2374.51 2604.52,2374.4 2599.15,2374.1 1463.27,1238.22 1468.64,1238.51 1474.19,1238.63 1479.88,1238.57 1485.7,1238.36 1491.6,1237.99 1497.57,1237.49 1503.57,1236.85 1509.57,1236.09 1515.54,1235.23 1521.45,1234.26 1527.27,1233.2 1532.97,1232.06 1538.53,1230.85 1543.9,1229.59 1549.07,1228.26 1554,1226.9 1558.67,1225.51 1563.03,1224.1 1567.07,1222.67 1570.75,1221.25 1574.04,1219.83 1576.92,1218.44 1579.35,1217.07 1581.3,1215.74 1582.75,1214.45 1583.66,1213.23 1584,1212.08 1583.75,1211 "/>
     <polygon id="_387216256" class="fil1" points="1468.12,1242.25 2604,2378.13 2605.59,2379.86 2607.13,2381.77 2608.61,2383.87 2610.03,2386.13 2611.38,2388.55 2612.66,2391.11 2613.87,2393.8 2614.99,2396.6 2616.04,2399.51 2616.99,2402.51 2617.86,2405.59 2618.63,2408.73 2619.31,2411.93 2619.88,2415.16 2620.35,2418.42 2620.7,2421.7 2620.94,2424.98 2621.07,2428.24 2621.07,2431.49 2620.95,2434.69 2620.7,2437.85 2620.32,2440.94 2619.79,2443.96 2619.13,2446.89 2618.32,2449.72 2617.37,2452.43 2616.26,2455.02 2614.99,2457.47 2613.57,2459.77 2611.98,2461.91 2610.22,2463.86 2608.29,2465.63 1472.41,1329.75 1474.34,1327.98 1476.1,1326.02 1477.69,1323.89 1479.11,1321.59 1480.38,1319.14 1481.49,1316.55 1482.44,1313.83 1483.25,1311.01 1483.91,1308.08 1484.43,1305.06 1484.82,1301.96 1485.07,1298.81 1485.19,1295.6 1485.19,1292.36 1485.06,1289.1 1484.82,1285.82 1484.46,1282.54 1484,1279.28 1483.43,1276.04 1482.75,1272.85 1481.98,1269.7 1481.11,1266.63 1480.16,1263.63 1479.11,1260.72 1477.99,1257.91 1476.78,1255.23 1475.5,1252.67 1474.15,1250.25 1472.73,1247.98 1471.25,1245.89 1469.71,1243.97 "/>
    </g>
    <path id="_478205656" class="fil1" d="M1405.6 1173.75c14.4732,13.0925 49.1776,26.3599 49.1776,26.3599 27.9142,-2.04213 42.9366,9.64607 65.8111,14.4626 12.5398,1.66299 40.5024,-9.6378 55.5898,-6.89174 35.2311,6.40985 -56.7284,34.6784 -112.904,30.5421 1.65709,1.24252 3.27284,2.58425 4.8437,4.02992 17.2961,17.302 25.8177,69.7099 4.28859,87.4985 0.00944883,0.0590552 0.0177165,0.119291 0.0271654,0.178347 -11.576,11.5028 -25.7799,22.0382 -37.7303,34.5851 -28.2402,28.2473 -50.8335,46.9465 -90.3674,61.0571 -35.2996,12.7134 -73.4256,20.8394 -110.141,29.3185 -10.9843,2.28543 -73.7953,25.6878 -102.049,40.5355 -53.4544,28.0902 -47.3363,56.5205 -95.6339,46.1918 -9.87875,-7.06418 -8.47323,-54.5741 -8.47323,-67.2792 -0.184252,-2.03268 -0.603544,-4.20945 -1.14449,-6.46654 -0.540945,2.25709 -0.960237,4.43386 -1.14449,6.46654 0,12.7051 1.40551,60.215 -8.47323,67.2792 -48.2977,10.3287 -42.1796,-18.1016 -95.6339,-46.1918 -28.2532,-14.8476 -91.0642,-38.25 -102.049,-40.5355 -36.7158,-8.47914 -74.8418,-16.6051 -110.141,-29.3185 -39.5339,-14.1106 -62.1272,-32.8099 -90.3674,-61.0571 -11.6811,-12.2646 -25.5166,-22.6075 -36.9461,-33.8103 -23.0717,-16.7882 -14.5606,-70.8308 3.0626,-88.4516 1.82717,-1.68071 3.71457,-3.22205 5.65748,-4.63111 -55.265,6.87756 -155.582,-23.2925 -119.036,-29.941 15.0874,-2.74607 43.05,8.55473 55.5898,6.89174 22.8744,-4.81654 37.8969,-16.5047 65.8111,-14.4626 0,0 34.7044,-13.2673 49.1776,-26.3599 27.4299,-24.8244 65.9611,-51.6355 98.8702,-70.9182 42.7583,-22.4398 46.1363,-56.2937 69.4796,-98.5678 18.0095,-33.1654 29.2666,-86.0942 53.7556,-112.654 2.26299,-2.7189 5.27126,-6.80315 9.84095,-11.1165l0 -0.434646 0.810237 -0.317717c5.36457,-4.89449 12.7784,-9.99804 23.4213,-13.6843l0.605906 0.348425 0 -0.603544c32.7449,-10.1811 74.7426,-9.56812 86.4201,-39.0969 -25.1126,-16.4835 -51.6969,-53.6138 -60.0827,-74.9434 -21.6071,-8.06339 -40.0642,-36.3366 -32.9256,-58.676 0.105118,-0.350788 0.217323,-0.696851 0.335433,-1.03701 -36.4607,-87.0591 27.5646,-175.717 93.8363,-186.266 0,0 24.6402,-5.14016 32.9752,3.21733 8.29725,-8.32796 32.9563,-3.10512 32.9563,-3.10276 66.3178,10.7917 130.66,99.6993 94.4658,186.647 0.0578741,0.178347 0.114567,0.359055 0.168898,0.540945 6.80197,21.2622 -9.58702,47.8996 -29.8193,57.3709 40.2331,38.7024 76.7528,85.8095 71.6918,148.119 20.648,28.0583 31.4953,75.2162 48.0426,105.689 23.3433,42.274 26.7213,76.128 69.4796,98.5678 32.9091,19.2827 71.4402,46.0937 98.8702,70.9182z"/>
   </g>
  </g>
  <path class="fil2" d="M1024 0c565.539,0 1024,458.461 1024,1024 0,565.539 -458.461,1024 -1024,1024 -565.539,0 -1024,-458.461 -1024,-1024 0,-565.539 458.461,-1024 1024,-1024z"/>
  <path class="fil3" d="M1468.12 1242.25c-35.3055,-32.4744 -93.1973,-12.7004 -129.907,5.64922 -66.3615,32.4733 -125.671,46.5933 -199.094,38.1225 -36.4087,-2.79803 -48.6981,-7.80001 -116.426,-7.26615 -59.8087,-0.533859 -72.0898,4.46929 -108.501,7.26615 -73.4162,8.47087 -132.725,-5.64804 -199.088,-38.1225 -36.7075,-18.3496 -94.6016,-38.1237 -129.9,-5.64922 -18.3603,18.3579 -26.8299,76.2473 0,90.3568l435.848 128.987 0 0.922442 1.55906 -0.46063 1.53662 0.46063 0 -0.908268 443.972 -129.001c26.8264,-14.1106 18.3532,-71.9977 0,-90.3568z"/>
  <path class="fil4" d="M1021.05 1432c-18.3532,-4.23898 -30.6083,22.8921 -56.0209,10.1787 -16.9488,-8.46969 -42.3544,-18.3591 -57.8941,-31.0677 -67.7729,-57.88 -128.491,-128.478 -223.096,-135.546 -46.1599,-3.30118 -96.5776,13.937 -102.684,54.3662 11.576,11.5028 25.7799,22.0382 37.7303,34.5851 28.2402,28.2473 50.8335,46.9465 90.3674,61.0571 35.2996,12.7134 73.4256,20.8394 110.141,29.3185 10.9843,2.28543 73.7953,25.6878 102.049,40.5355 53.4544,28.0902 47.3363,56.5205 95.6339,46.1918 9.87875,-7.06418 8.47323,-54.5741 8.47323,-67.2792 1.41024,-15.5197 16.4788,-39.5209 -4.69961,-42.3402z"/>
  <path class="fil4" d="M1032.74 1432c18.3532,-4.23898 30.6083,22.8921 56.0209,10.1787 16.9488,-8.46969 42.3544,-18.3591 57.8941,-31.0677 67.7729,-57.88 128.491,-128.478 223.096,-135.546 46.1599,-3.30118 96.5776,13.937 102.684,54.3662 -11.576,11.5028 -25.7799,22.0382 -37.7303,34.5851 -28.2402,28.2473 -50.8335,46.9465 -90.3674,61.0571 -35.2996,12.7134 -73.4256,20.8394 -110.141,29.3185 -10.9843,2.28543 -73.7953,25.6878 -102.049,40.5355 -53.4544,28.0902 -47.3363,56.5205 -95.6339,46.1918 -9.87875,-7.06418 -8.47323,-54.5741 -8.47323,-67.2792 -1.41024,-15.5197 -16.4788,-39.5209 4.69961,-42.3402z"/>
  <path class="fil5" d="M1173.65 880.491l0 -0.434646 -0.810237 -0.317717c-5.36457,-4.89449 -12.7784,-9.99804 -23.4213,-13.6843l-0.605906 0.348425 0 -0.603544c-37.6111,-11.6941 -87.43,-9.14764 -89.4887,-54.3945 0.0011811,-3.90118 -0.0555119,-7.79882 0.393307,-11.6823l-0.392126 -0.155906 0 -38.4532 -34.6961 0 -0.63189 0 -0.63189 0 -34.6961 0 0 38.4532 -0.392126 0.155906c0.448819,3.88347 0.392126,7.78111 0.393307,11.6823 -2.05866,45.2469 -51.8776,42.7004 -89.4887,54.3945l0 0.603544 -0.605906 -0.348425c-10.6429,3.68622 -18.0567,8.78977 -23.4213,13.6843l-0.810237 0.317717 0 0.434646c-4.56969,4.31339 -7.57796,8.39764 -9.84095,11.1165 -24.489,26.5595 -35.7461,79.4883 -53.7556,112.654 -23.3433,42.274 -26.7213,76.128 -69.4796,98.5678 -32.9091,19.2827 -71.4402,46.0937 -98.8702,70.9182 -14.4732,13.0925 -49.1776,26.3599 -49.1776,26.3599 -27.9142,-2.04213 -42.9366,9.64607 -65.8111,14.4626 -12.5398,1.66299 -40.5024,-9.6378 -55.5898,-6.89174 -43.3878,7.89331 106.13,48.9402 144.145,21.7854l35.8111 -18.3886c81.8953,-38.9705 161.293,-68.5772 193.36,-136.148 8.44016,-18.3071 23.7201,-50.4532 43.7067,-77.9304 0.759449,-0.401575 1.54606,-0.787796 2.36575,-1.16457 8.80749,5.16142 7.23898,36.404 6.78898,45.9142l125.702 0 0.297638 0 0.297638 0 125.702 0c-0.45,-9.51024 -2.01851,-40.7528 6.78898,-45.9142 0.819686,0.376772 1.6063,0.762993 2.36575,1.16457 19.9866,27.4772 35.2666,59.6233 43.7067,77.9304 32.067,67.5709 111.464,97.1776 193.36,136.148l35.8111 18.3886c38.015,27.1547 187.533,-13.8921 144.145,-21.7854 -15.0874,-2.74607 -43.05,8.55473 -55.5898,6.89174 -22.8744,-4.81654 -37.8969,-16.5047 -65.8111,-14.4626 0,0 -34.7044,-13.2673 -49.1776,-26.3599 -27.4299,-24.8244 -65.9611,-51.6355 -98.8702,-70.9182 -42.7583,-22.4398 -46.1363,-56.2937 -69.4796,-98.5678 -18.0095,-33.1654 -29.2666,-86.0942 -53.7556,-112.654 -2.26299,-2.7189 -5.27126,-6.80315 -9.84095,-11.1165z"/>
  <path class="fil6" d="M1149.44 1291.32c14.7626,1.45866 18.0012,2.11536 18.0012,-12.7099 -1.05709,-10.5945 -10.585,-24.3555 -14.8252,-33.8882 -9.52678,-18.0024 -14.8193,-34.9465 -19.0583,-56.1308 -6.36024,-29.6492 -4.23662,-57.1819 10.5886,-81.5398 18.0083,-26.4768 19.0642,-45.5363 12.7099,-75.1938 -5.29607,-26.4732 -18.0059,-50.8241 -20.1213,-77.3044 -3.17717,-30.7122 4.23426,-57.8126 5.29252,-87.4701l-29.6492 -5.71772c0,56.1201 -27.5351,98.4887 -85.7847,98.4887l-11.0858 0c-58.2414,0 -85.7753,-42.3685 -85.7753,-98.4887l-29.654 5.71654c1.06299,29.6587 8.46969,56.7591 5.29607,87.4713 -2.1189,26.4803 -14.8276,50.8323 -20.1201,77.3044 -6.35552,29.6575 -5.29843,48.7181 12.7039,75.1938 14.8299,24.3555 16.9441,51.8906 10.5898,81.5398 -4.23071,21.1843 -9.52796,38.1284 -19.0642,56.1308 -4.22953,9.53032 -13.7622,23.2949 -14.824,33.8882 0,14.8252 3.17717,12.7099 18.0106,12.7099 40.239,0 130.023,-12.5646 256.769,0z"/>
  <path class="fil3" d="M1097.45 731.934c49.7752,44.4626 103.401,99.9627 90.202,179.19 -5.6563,35.8406 -24.2658,60.3603 -29.9221,98.0906 -3.76654,43.3796 -8.8819,94.3146 -22.0795,133.929 0,-30.1831 -0.5563,-75.4536 -9.98623,-105.637 -9.4382,-35.8394 -18.8693,-67.9016 -9.4382,-105.637 7.54843,-26.3977 21.3071,-37.7174 19.4244,-64.1268 -1.88504,-35.8335 -17.4508,-66.8138 -38.2028,-91.3465l0.00236221 -44.4626z"/>
  <path class="fil5" d="M1108.83 696.597c-0.362599,-26.8394 32.0835,-24.9603 38.5063,-3.51378 8.11654,25.3701 -16.7847,58.3914 -41.8347,60.776l3.32835 -57.2622z"/>
  <path class="fil5" d="M931.105 696.597c0.362599,-26.8394 -32.0906,-24.9603 -38.5087,-3.51378 -8.10709,25.3701 16.7965,58.3914 41.8359,60.776l-3.32717 -57.2622z"/>
  <path class="fil7" d="M1118.84 636.75c2.61378,32.9185 6.95906,76.4694 -3.45473,109.484 -6.96142,26.0622 -55.6134,92.0942 -86.8961,88.6276l-17.9362 0c-31.2827,3.46654 -79.9359,-62.563 -86.8914,-88.6276 -10.4256,-33.0166 -3.46536,-76.4623 -3.46536,-109.482 0.00236221,-0.0011811 -7.54725,-104.973 85.5438,-121.53 0,0 102.085,-17.5984 113.1,121.528z"/>
  <path class="fil3" d="M1022.46 515.614c1.48347,58.4811 -21.1878,75.28 -59.9434,102.679 -38.7567,27.411 -40.5685,56.7792 -55.0347,100.48 -64.1563,-94.7209 6.20079,-201.359 79.2886,-212.993 0,0 35.2536,-7.35473 35.6894,9.83387z"/>
  <path class="fil3" d="M1017.06 515.602c-1.28032,58.4752 21.4276,75.3638 60.2918,102.904 38.8548,27.5481 40.7681,56.9115 55.3725,100.678 63.8315,-94.5024 -6.89528,-201.39 -80.0245,-213.29 0,-0.00236221 -35.2784,-7.47402 -35.6398,9.70749z"/>
 </g>
</svg>
